<svg width="344" height="204" viewBox="0 0 344 204" fill="none" xmlns="http://www.w3.org/2000/svg">
<path fill-rule="evenodd" clip-rule="evenodd" d="M45.2434 22.3335H46.7499L50 17.013V104H29V17.013L32.2431 22.3335H33.7984L39.5942 0L45.2434 22.3335ZM32.8011 30.7181V39.8966H36.2883V30.7181C36.2883 29.7566 35.5076 28.9771 34.5447 28.9771C33.5817 28.9771 32.8011 29.7566 32.8011 30.7181ZM41.2401 39.8966H37.7599V30.7181C37.7599 29.7566 38.5405 28.9771 39.5035 28.9771C40.4665 28.9771 41.2471 29.7566 41.2471 30.7181L41.2401 39.8966ZM42.7047 39.8966H46.192V30.7181C46.192 29.7566 45.4113 28.9771 44.4484 28.9771C43.4854 28.9771 42.7047 29.7566 42.7047 30.7181V39.8966Z" fill="white"/>
<path fill-rule="evenodd" clip-rule="evenodd" d="M68 107V21H89.865L130.249 73.5803V21H152V107H130.249L89.865 54.4197V107H68Z" fill="white"/>
<path fill-rule="evenodd" clip-rule="evenodd" d="M216 39.9264H189.779V54.2962H213.669V73.2518H189.779V107H168V21H216V39.9264Z" fill="white"/>
<path fill-rule="evenodd" clip-rule="evenodd" d="M253.376 22.3726C236.683 28.8403 225.763 45.0489 226.004 63.0036C225.819 80.9417 236.719 97.1217 253.376 103.635C265.33 108.122 278.497 108.122 290.45 103.635C295.888 101.522 300.853 98.3452 305.056 94.2881C309.128 90.3105 312.367 85.5558 314.581 80.3038C316.884 74.831 318.046 68.9438 317.999 63.0036C318.047 57.0611 316.884 51.1714 314.581 45.6964C312.367 40.4443 309.128 35.6896 305.056 31.712C300.855 27.6547 295.889 24.4796 290.45 22.3726C278.498 17.8758 265.328 17.8758 253.376 22.3726ZM250.459 72.1945C249.191 69.2992 248.552 66.166 248.585 63.0036C248.551 59.841 249.19 56.7075 250.459 53.8127C252.879 48.2825 257.372 43.9314 262.965 41.7018C268.736 39.4205 275.154 39.4205 280.924 41.7018C283.703 42.8155 286.244 44.4494 288.414 46.5165C290.586 48.5846 292.327 51.0645 293.536 53.8127C296.043 59.6818 296.043 66.3254 293.536 72.1945C292.327 74.9426 290.586 77.4226 288.414 79.4907C281.591 85.9361 271.657 87.8129 262.965 84.2983C257.37 82.0743 252.876 77.7247 250.459 72.1945Z" fill="white"/>
<path fill-rule="evenodd" clip-rule="evenodd" d="M64 146.172C58.9683 140.044 52.7566 136.98 45.365 136.98C42.2612 136.952 39.1842 137.554 36.3207 138.748C30.8937 140.986 26.6108 145.324 24.453 150.769C23.2905 153.649 22.7073 156.729 22.7364 159.834C22.6995 162.98 23.2828 166.104 24.453 169.026C27.8439 177.498 36.1015 183.029 45.2515 182.956C52.2033 182.956 58.4528 180.008 64 174.11V199.764L61.7797 200.535C58.7535 201.647 55.647 202.529 52.487 203.173C49.6822 203.716 46.832 203.993 43.9747 204C32.5254 204.008 21.5308 199.534 13.3586 191.541C9.26799 187.517 5.97572 182.759 3.65449 177.519C-1.19838 166.234 -1.21888 153.463 3.59775 142.163C10.6932 126.234 26.5468 115.975 44.0314 116C47.3326 115.995 50.6245 116.348 53.849 117.054C57.3248 117.831 60.7224 118.923 64 120.313V146.172Z" fill="white"/>
<path fill-rule="evenodd" clip-rule="evenodd" d="M93.8366 204L98.7221 189.061H129.278L134.191 204H157L125.677 118H102.323L71 204H93.8366ZM114 143.428L123.604 172.058H104.382L114 143.428Z" fill="white"/>
<path fill-rule="evenodd" clip-rule="evenodd" d="M163 204L176.808 118H197.748L214.055 163.852L230.245 118H251.192L265 204H243.97L236.956 154.493L217.735 204H209.319L191.072 154.493L184.043 204H163Z" fill="white"/>
<path fill-rule="evenodd" clip-rule="evenodd" d="M280 204H301.856V176.481H314.792C324.233 176.486 331.461 174.064 336.477 169.216C341.492 164.368 344 157.542 344 148.737C344.009 139.933 341.502 133.109 336.477 128.265C331.452 123.422 324.224 121 314.792 121H280V204ZM309.101 159.086H301.856V138.388H309.101C317.131 138.388 321.145 141.838 321.145 148.737C321.145 155.636 317.131 159.086 309.101 159.086Z" fill="white"/>
</svg>
