<?xml version="1.0" encoding="UTF-8"?>
<svg width="345px" height="197px" viewBox="0 0 345 197" version="1.1" xmlns="http://www.w3.org/2000/svg" xmlns:xlink="http://www.w3.org/1999/xlink">
    <!-- Generator: Sketch 52.6 (67491) - http://www.bohemiancoding.com/sketch -->
    <title>infocamp-logo</title>
    <desc>Created with Sketch.</desc>
    <g id="Page-1" stroke="none" stroke-width="1" fill="none" fill-rule="evenodd">
        <g id="Desktop-HD-Copy-2" transform="translate(-121.000000, -126.000000)" fill="#FFFFFF">
            <g id="infocamp-logo" transform="translate(121.000000, 126.000000)">
                <path d="M55.2856194,22.1187224 L53.5639322,22.1187224 L47.1076054,0 L40.4838924,22.1187224 L38.7064098,22.1187224 L35,16.849404 L35,103 L59,103 L59,16.849404 L55.2856194,22.1187224 Z M44,39.279661 L40,39.279661 L40,29.7414281 C40,28.7422209 40.8954305,27.9322034 42,27.9322034 C43.1045695,27.9322034 44,28.7422209 44,29.7414281 L44,39.279661 Z M48.992,39.279661 L45,39.279661 L45,29.7414281 C45,28.7422209 45.8954305,27.9322034 47,27.9322034 C48.1045695,27.9322034 49,28.7422209 49,29.7414281 L48.992,39.279661 Z M54,39.279661 L50,39.279661 L50,29.7414281 C50,28.7422209 50.8954305,27.9322034 52,27.9322034 C53.1045695,27.9322034 54,28.7422209 54,29.7414281 L54,39.279661 Z" id="Shape" fill-rule="nonzero"></path>
                <polygon id="Path" points="148.9468 102.69013 128.774334 102.69013 94.9256195 57.8263081 94.9256195 102.69013 73.1575911 102.69013 73.1575911 22.0502858 93.4440259 22.0502858 127.29274 67.1441789 127.29274 22.0502858 148.9468 22.0502858"></polygon>
                <polygon id="Path" points="224.194657 40.4559565 185.901162 40.4559565 185.901162 56.5609183 221.459407 56.5609183 221.459407 74.9665889 185.901162 74.9665889 185.901162 102.69013 162.195665 102.69013 162.195665 22.0502858 224.194657 22.0502858"></polygon>
                <path d="M271.02631,20.852 C296.099431,20.852 314.562366,38.2223516 314.562366,61.8046171 C314.562366,85.501918 296.099431,103.217376 271.02631,103.217376 C245.953188,103.217376 227.490253,85.6169535 227.490253,61.8046171 C227.490253,38.1073162 245.953188,20.852 271.02631,20.852 Z M272.023536,41.2228594 C261.424444,41.2228594 252.420914,50.0805884 252.420914,62.2743452 C252.420914,74.468102 261.538412,83.5559018 272.023536,83.5559018 C282.50866,83.5559018 290.942346,74.468102 290.942346,62.2743452 C290.942346,50.0805884 282.50866,41.2228594 272.023536,41.2228594 Z" id="Combined-Shape"></path>
                <path d="M43.7061706,113.921724 C55.7868565,113.921724 68.6653235,119.443426 76.7571037,128.186119 L63.0808555,144.521152 C58.0662312,138.079167 50.6582634,133.822856 44.0480768,133.822856 C33.221047,133.822856 25.015298,142.680585 25.015298,154.529235 C25.015298,166.377886 33.221047,175.35065 44.0480768,175.35065 C50.2023884,175.35065 57.6103562,171.669516 63.0808555,166.032779 L76.7571037,180.757316 C68.0954798,190.190222 54.9890753,196.2871 42.9083894,196.2871 C18.6330489,196.2871 0.73995752,178.571642 0.73995752,154.759306 C0.73995752,131.292076 18.9749551,113.921724 43.7061706,113.921724 Z" id="Path"></path>
                <path d="M136.961088,182.875885 L104.707936,182.875885 L99.921249,195.759855 L75.5319398,195.759855 L109.608591,115.12001 L133.997901,115.12001 L166.934865,195.759855 L141.633806,195.759855 L136.961088,182.875885 Z M130.521854,165.428843 L120.948481,139.085727 L111.147169,165.428843 L130.521854,165.428843 Z" id="Combined-Shape"></path>
                <polygon id="Path" points="262.231722 195.759855 241.489413 195.759855 241.375444 148.020146 225.305852 187.822409 209.806104 187.822409 193.736513 148.020146 193.736513 195.759855 172.880234 195.759855 172.880234 115.12001 198.295262 115.12001 217.555978 159.753761 236.816694 115.12001 262.231722 115.12001"></polygon>
                <path d="M276.1644,115.12001 L312.406458,115.12001 C333.034799,115.12001 344.887547,125.4732 344.887547,143.763835 C344.887547,162.974754 333.034799,174.018156 312.406458,174.018156 L299.869897,174.018156 L299.869897,195.759855 L276.1644,195.759855 L276.1644,115.12001 Z M299.907887,133.094298 L299.907887,155.181103 L311.30476,155.181103 C318.370822,155.181103 322.473696,151.269898 322.473696,144.022665 C322.473696,137.005503 318.370822,133.094298 311.30476,133.094298 L299.907887,133.094298 Z" id="Combined-Shape"></path>
            </g>
        </g>
    </g>
</svg>