<?xml version="1.0" encoding="UTF-8"?>
<svg width="473px" height="84px" viewBox="0 0 473 84" version="1.1" xmlns="http://www.w3.org/2000/svg" xmlns:xlink="http://www.w3.org/1999/xlink">
    <!-- Generator: Sketch 53.1 (72631) - https://sketchapp.com -->
    <title>Group 32</title>
    <desc>Created with Sketch.</desc>
    <g id="Page-1" stroke="none" stroke-width="1" fill="none" fill-rule="evenodd" stroke-linecap="round" stroke-linejoin="round">
        <g id="Desktop-HD-Copy-3" transform="translate(-483.000000, -393.000000)" stroke="#FFFFFF" stroke-width="2">
            <g id="Group-32" transform="translate(484.000000, 394.000000)">
                <path d="M59.744532,40.9247831 L72.7641062,40.9247831 L74,29.364683 L61.1707786,29.364683 L63.070108,13.5310656 L51.2864275,13.5310656 L49.3856985,29.364683 L36.080595,29.364683 L37.981324,13.5310656 L26.1976436,13.5310656 L24.2969145,29.364683 L11.4676931,29.364683 L10.2317993,40.9247831 L22.8706679,40.9247831 L21.255468,54.8169332 L8.33107021,54.8169332 L7,66.3770333 L19.8292214,66.3770333 L18.0236688,81.5310656 L29.8087489,81.5310656 L31.6143015,66.3770333 L44.8242286,66.3770333 L43.018676,81.5310656 L54.8023564,81.5310656 L56.6079091,66.3770333 L69.5337066,66.3770333 L70.8633771,54.8169332 L58.0341557,54.8169332 L59.744532,40.9247831 Z M47.9608515,40.9247831 L46.2490756,54.8169332 L33.0391485,54.8169332 L34.7509244,40.9247831 L47.9608515,40.9247831 Z" id="Stroke-1"></path>
                <polygon id="Stroke-2" points="151.10969 81.5310656 170 29.5310656 153.794385 29.5310656 143.342293 65.5163103 132.698135 29.5310656 116.876653 29.5310656 106.520594 65.5163103 95.8778478 29.5310656 79 29.5310656 97.8903098 81.5310656 114.384024 81.5310656 124.548017 48.5353556 134.713421 81.5310656"></polygon>
                <g id="Group-17" transform="translate(0.000000, 5.000000)">
                    <path d="M215.116332,23.6299383 C207.48886,23.72613 201.483209,26.8000196 197.859036,32.9463842 L197.859036,4.900855 L181.365611,4.900855 L181.365611,76.1689779 L197.859036,76.1689779 L197.859036,50.6187738 C197.859036,43.5119071 201.86374,38.3260446 208.34681,38.3260446 C213.97193,38.3260446 217.405135,42.0704467 217.405135,48.1220342 L217.405135,76.1689779 L233.89856,76.1689779 L233.89856,43.5119071 C233.89856,31.4101467 226.462056,23.6299383 215.116332,23.6299383 Z" id="Stroke-3"></path>
                    <path d="M273.369604,23.6299383 C264.788698,23.6299383 257.543161,25.7433258 249.533754,29.4891425 L254.20544,40.4380175 C259.639593,37.6527029 265.266117,36.1164654 269.555868,36.1164654 C276.229906,36.1164654 279.566222,39.190355 279.566222,44.2814404 L279.566222,45.0495592 L266.027179,45.0495592 C253.252006,45.1443363 246.292921,50.9073488 246.292921,60.7047529 C246.292921,70.2135821 252.965555,76.9370967 263.930748,76.9370967 C270.889833,76.9370967 276.323985,74.6327404 279.661706,70.2135821 L279.661706,76.1689779 L295.7746,76.1689779 L295.7746,42.3590217 C295.679116,30.6420279 287.480146,23.6299383 273.369604,23.6299383 Z M268.982965,65.6982321 C264.406762,65.6982321 261.737428,63.2976842 261.737428,59.5532821 C261.737428,55.7098592 264.215795,53.9812383 269.173932,53.9812383 L279.566222,53.9812383 L279.566222,58.5913654 C278.518709,62.8181404 274.13207,65.6982321 268.982965,65.6982321 Z" id="Stroke-5"></path>
                    <path d="M342.20501,61.8567896 C339.725239,62.9134833 337.533324,63.586825 335.817423,63.586825 C332.766154,63.6816021 331.050253,61.9529813 331.050253,57.9200042 L331.050253,37.6532688 L344.492409,37.6532688 L344.492409,26.7029792 L331.050253,26.7029792 L331.050253,12.3916396 L314.650908,12.3916396 L314.650908,26.7991708 L307.500855,26.7991708 L307.500855,37.6532688 L314.650908,37.6532688 L314.650908,60.5129354 C314.650908,71.2694271 321.802365,76.9362479 331.717236,76.9362479 C336.675374,76.9362479 341.727591,75.5923938 345.447247,73.3828146 L342.20501,61.8567896 Z" id="Stroke-7"></path>
                    <path d="M366.802624,0.770696042 C361.749002,0.770696042 358.126234,4.42032104 358.126234,9.51140646 C358.126234,14.697269 361.749002,18.346894 366.802624,18.346894 C371.856245,18.346894 375.479014,14.697269 375.479014,9.51140646 C375.479014,4.42032104 371.856245,0.770696042 366.802624,0.770696042 Z M374.906111,76.1679877 L374.906111,24.3984815 L358.508169,24.3984815 L358.508169,76.1679877 L374.906111,76.1679877 Z" id="Stroke-9"></path>
                    <path d="M418.190048,17.2906246 C420.096916,17.2906246 422.385719,18.0587433 424.197103,19.4040121 L430.013191,7.78179542 C426.103971,5.47602458 420.669819,4.13217042 415.616197,4.13217042 C404.556925,4.13217042 395.976019,10.4709183 395.976019,21.9007517 L395.976019,26.7032621 L389.016934,26.7032621 L389.016934,37.6535517 L395.976019,37.6535517 L395.976019,76.1684121 L412.27988,76.1684121 L412.27988,37.6535517 L423.910652,37.6535517 L423.910652,26.7032621 L412.27988,26.7032621 L412.27988,22.9574454 C412.27988,19.1154371 414.853731,17.1944329 418.190048,17.2906246 Z" id="Stroke-11"></path>
                    <path d="M440.880372,30.5454119 C440.974452,24.5914306 443.645191,21.8047015 448.412361,21.8047015 C452.702111,21.8047015 455.277366,23.7257056 455.277366,28.0486723 C455.277366,37.5575015 443.549707,38.3256202 443.549707,53.2126952 L455.848865,53.2126952 C455.848865,41.6866702 470.436826,39.9580494 470.436826,25.3581348 C470.436826,14.6016431 462.616982,8.64624729 449.937293,8.64624729 C436.495138,8.64624729 428.390247,16.7150306 428.200683,30.4492202 L440.880372,30.5454119 Z M449.459874,60.8967119 C444.788188,60.8967119 441.548759,64.1629848 441.548759,68.8693035 C441.548759,73.6703994 444.788188,76.9366723 449.459874,76.9366723 C454.132964,76.9366723 457.469281,73.6703994 457.469281,68.8693035 C457.469281,64.1629848 454.132964,60.8967119 449.459874,60.8967119 Z" id="Stroke-13"></path>
                    <path d="M53.6423866,30.5909615 L66.7040109,30.5909615 L67.9438964,19.1611281 L55.0732397,19.1611281 L56.9787034,3.50593438 L45.1569645,3.50593438 L43.2500966,19.1611281 L29.9020207,19.1611281 L31.8088887,3.50593438 L19.9871498,3.50593438 L18.0802818,19.1611281 L5.20962509,19.1611281 L3.96973965,30.5909615 L16.6494287,30.5909615 L15.0290122,44.3265656 L2.06287168,44.3265656 L0.727502428,55.756399 L13.5981592,55.756399 L11.786775,70.7396656 L23.6099181,70.7396656 L25.4213023,55.756399 L38.6738943,55.756399 L36.8625101,70.7396656 L48.684249,70.7396656 L50.4956332,55.756399 L63.4631779,55.756399 L64.797143,44.3265656 L51.9264862,44.3265656 L53.6423866,30.5909615 Z M41.8206477,30.5909615 L40.1033431,44.3265656 L26.8507511,44.3265656 L28.5680557,30.5909615 L41.8206477,30.5909615 Z" id="Stroke-15"></path>
                </g>
                <polygon id="Stroke-18" points="146.10969 75.5310656 165 23.5310656 148.794385 23.5310656 138.342293 59.5163103 127.698135 23.5310656 111.876653 23.5310656 101.520594 59.5163103 90.8778478 23.5310656 74 23.5310656 92.8903098 75.5310656 109.384024 75.5310656 119.548017 42.5353556 129.713421 75.5310656"></polygon>
                <g id="Group-31" transform="translate(175.000000, 0.000000)">
                    <path d="M34.1436493,22.8592423 C26.5125205,22.955434 20.50399,26.0293235 16.8780799,32.1756881 L16.8780799,4.13015896 L0.37674736,4.13015896 L0.37674736,75.3982819 L16.8780799,75.3982819 L16.8780799,49.8480777 C16.8780799,42.741211 20.8847035,37.5553485 27.370882,37.5553485 C32.998699,37.5553485 36.4335499,41.2997506 36.4335499,47.3513381 L36.4335499,75.3982819 L52.9348824,75.3982819 L52.9348824,42.741211 C52.9348824,30.6394506 45.4948129,22.8592423 34.1436493,22.8592423 Z" id="Stroke-19"></path>
                    <path d="M92.42485,22.8592423 C83.8398301,22.8592423 76.5908197,24.9726298 68.5775726,28.7184465 L73.2514984,39.6673215 C78.6882562,36.8820069 84.3174781,35.3457694 88.6092856,35.3457694 C95.2865233,35.3457694 98.6244397,38.419659 98.6244397,43.5107444 L98.6244397,44.2788631 L85.0789051,44.2788631 C72.2976073,44.3736402 65.3351857,50.1366527 65.3351857,59.9340569 C65.3351857,69.442886 72.0110186,76.1664006 82.9814686,76.1664006 C89.9438902,76.1664006 95.380648,73.8620444 98.7199693,69.442886 L98.7199693,75.3982819 L114.840588,75.3982819 L114.840588,41.5883256 C114.745059,29.8713319 106.542157,22.8592423 92.42485,22.8592423 Z M88.036108,64.927536 C83.4577117,64.927536 80.7870976,62.5269881 80.7870976,58.782586 C80.7870976,54.9391631 83.2666525,53.2105423 88.2271672,53.2105423 L98.6244397,53.2105423 L98.6244397,57.8206694 C97.5764238,62.0474444 93.1876819,64.927536 88.036108,64.927536 Z" id="Stroke-21"></path>
                    <path d="M161.293258,61.0860935 C158.812299,62.1427873 156.619333,62.816129 154.90261,62.816129 C151.849877,62.910906 150.133154,61.1822852 150.133154,57.1493081 L150.133154,36.8825727 L163.581754,36.8825727 L163.581754,25.9322831 L150.133154,25.9322831 L150.133154,11.6209435 L133.725946,11.6209435 L133.725946,26.0284748 L126.572465,26.0284748 L126.572465,36.8825727 L133.725946,36.8825727 L133.725946,59.7422394 C133.725946,70.498731 140.880832,76.1655519 150.800456,76.1655519 C155.760971,76.1655519 160.81561,74.8216977 164.53705,72.6121185 L161.293258,61.0860935 Z" id="Stroke-23"></path>
                    <path d="M185.902806,2.13162821e-14 C180.846762,2.13162821e-14 177.222256,3.649625 177.222256,8.74071042 C177.222256,13.9265729 180.846762,17.5761979 185.902806,17.5761979 C190.95885,17.5761979 194.583355,13.9265729 194.583355,8.74071042 C194.583355,3.649625 190.95885,2.13162821e-14 185.902806,2.13162821e-14 Z M194.010178,75.3972917 L194.010178,23.6277854 L177.604375,23.6277854 L177.604375,75.3972917 L194.010178,75.3972917 Z" id="Stroke-25"></path>
                    <path d="M237.315429,16.5199285 C239.223211,16.5199285 241.513111,17.2880473 243.325364,18.633316 L249.14424,7.01109938 C245.233146,4.70532854 239.796388,3.36147438 234.740344,3.36147438 C223.675769,3.36147438 215.09075,9.70022229 215.09075,21.1300556 L215.09075,25.932566 L208.128328,25.932566 L208.128328,36.8828556 L215.09075,36.8828556 L215.09075,75.397716 L231.402428,75.397716 L231.402428,36.8828556 L243.038775,36.8828556 L243.038775,25.932566 L231.402428,25.932566 L231.402428,22.1867494 C231.402428,18.344741 233.977512,16.4237369 237.315429,16.5199285 Z" id="Stroke-27"></path>
                    <path d="M260.016632,29.7747158 C260.110757,23.8207346 262.782776,21.0340054 267.552231,21.0340054 C271.844039,21.0340054 274.420528,22.9550096 274.420528,27.2779763 C274.420528,36.7868054 262.687246,37.5549242 262.687246,52.4419992 L274.992301,52.4419992 C274.992301,40.9159742 289.587256,39.1873533 289.587256,24.5874388 C289.587256,13.8309471 281.763663,7.87555125 269.077895,7.87555125 C255.629295,7.87555125 247.520518,15.9443346 247.330864,29.6785242 L260.016632,29.7747158 Z M268.600247,60.1260158 C263.926321,60.1260158 260.685339,63.3922888 260.685339,68.0986075 C260.685339,72.8997033 263.926321,76.1659763 268.600247,76.1659763 C273.275578,76.1659763 276.613494,72.8997033 276.613494,68.0986075 C276.613494,63.3922888 273.275578,60.1260158 268.600247,60.1260158 Z" id="Stroke-29"></path>
                </g>
            </g>
        </g>
    </g>
</svg>